<?xml version="1.0" encoding="UTF-8" standalone="no"?>
<!-- Created with Inkscape (http://www.inkscape.org/) -->

<svg
   xmlns:dc="http://purl.org/dc/elements/1.1/"
   xmlns:cc="http://creativecommons.org/ns#"
   xmlns:rdf="http://www.w3.org/1999/02/22-rdf-syntax-ns#"
   xmlns:svg="http://www.w3.org/2000/svg"
   xmlns="http://www.w3.org/2000/svg"
   xmlns:xlink="http://www.w3.org/1999/xlink"
   xmlns:sodipodi="http://sodipodi.sourceforge.net/DTD/sodipodi-0.dtd"
   xmlns:inkscape="http://www.inkscape.org/namespaces/inkscape"
   version="1.1"
   id="svg2"
   width="1920"
   height="1080"
   viewBox="0 0 1920 1080"
   sodipodi:docname="bg.svg"
   inkscape:version="0.92.4 (5da689c313, 2019-01-14)">
  <metadata
     id="metadata8">
    <rdf:RDF>
      <cc:Work
         rdf:about="">
        <dc:format>image/svg+xml</dc:format>
        <dc:type
           rdf:resource="http://purl.org/dc/dcmitype/StillImage" />
        <dc:title></dc:title>
      </cc:Work>
    </rdf:RDF>
  </metadata>
  <defs
     id="defs6">
    <linearGradient
       id="linearGradient2488">
      <stop
         id="stop2474"
         offset="0"
         style="stop-color:#bbf663;stop-opacity:1" />
      <stop
         id="stop2480"
         offset="0.12235876"
         style="stop-color:#d4ff2a;stop-opacity:1;" />
      <stop
         id="stop2482"
         offset="0.41046366"
         style="stop-color:#59a5d8;stop-opacity:1" />
      <stop
         id="stop2484"
         offset="0.77272606"
         style="stop-color:#2c89a0;stop-opacity:1;" />
      <stop
         style="stop-color:#004455;stop-opacity:1;"
         offset="1"
         id="stop2486" />
    </linearGradient>
    <linearGradient
       id="linearGradient3727">
      <stop
         style="stop-color:#183350;stop-opacity:1;"
         offset="0"
         id="stop3729" />
      <stop
         style="stop-color:#0b1f36;stop-opacity:1;"
         offset="1"
         id="stop3731" />
    </linearGradient>
    <linearGradient
       inkscape:collect="always"
       xlink:href="#linearGradient2488"
       id="linearGradient5895"
       gradientUnits="userSpaceOnUse"
       gradientTransform="matrix(0.10635303,0,0,0.05190259,-11.700107,-518.58717)"
       x1="13259.75"
       y1="5023.0312"
       x2="3383.3667"
       y2="104.46116" />
    <linearGradient
       id="linearGradient4892-4">
      <stop
         id="stop4894-8"
         offset="0"
         style="stop-color:#782144;stop-opacity:1;" />
      <stop
         style="stop-color:#460921;stop-opacity:1;"
         offset="0.13264395"
         id="stop4896-7" />
      <stop
         style="stop-color:#ffcc00;stop-opacity:1;"
         offset="0.27492476"
         id="stop4898-3" />
      <stop
         style="stop-color:#cba226;stop-opacity:1;"
         offset="0.36537257"
         id="stop4900-3" />
      <stop
         style="stop-color:#d4ff2a;stop-opacity:1;"
         offset="0.52148771"
         id="stop4902-5" />
      <stop
         style="stop-color:#668000;stop-opacity:1;"
         offset="0.65887797"
         id="stop4904-0" />
      <stop
         style="stop-color:#2c89a0;stop-opacity:1;"
         offset="0.8028726"
         id="stop4906-1" />
      <stop
         id="stop4908-4"
         offset="1"
         style="stop-color:#004455;stop-opacity:1;" />
    </linearGradient>
    <filter
       inkscape:collect="always"
       id="filter5961"
       style="color-interpolation-filters:sRGB">
      <feGaussianBlur
         inkscape:collect="always"
         stdDeviation="0.69108351"
         id="feGaussianBlur5963" />
    </filter>
    <linearGradient
       inkscape:collect="always"
       xlink:href="#linearGradient2488"
       id="linearGradient5882"
       gradientUnits="userSpaceOnUse"
       x1="11949.707"
       y1="4370.6128"
       x2="3383.3667"
       y2="104.46116"
       gradientTransform="matrix(0.10635303,0,0,0.08312718,-11.700107,-525.01261)" />
    <filter
       inkscape:collect="always"
       id="filter5953"
       style="color-interpolation-filters:sRGB">
      <feGaussianBlur
         inkscape:collect="always"
         stdDeviation="0.80488307"
         id="feGaussianBlur5955" />
    </filter>
    <linearGradient
       inkscape:collect="always"
       xlink:href="#linearGradient2488"
       id="linearGradient5885"
       gradientUnits="userSpaceOnUse"
       x1="13259.75"
       y1="5023.0312"
       x2="3383.3667"
       y2="104.46116"
       gradientTransform="matrix(0.09417006,0,0,0.05520051,517.81614,555.8086)" />
    <linearGradient
       inkscape:collect="always"
       xlink:href="#linearGradient2488"
       id="linearGradient5879"
       gradientUnits="userSpaceOnUse"
       x1="13259.75"
       y1="5023.0312"
       x2="3383.3667"
       y2="104.46116"
       gradientTransform="matrix(0.10635303,0,0,0.08312718,-11.700107,-533.01261)" />
    <filter
       inkscape:collect="always"
       id="filter5945"
       style="color-interpolation-filters:sRGB">
      <feGaussianBlur
         inkscape:collect="always"
         stdDeviation="4.1062321"
         id="feGaussianBlur5947" />
    </filter>
  </defs>
  <sodipodi:namedview
     pagecolor="#ffffff"
     bordercolor="#666666"
     borderopacity="1"
     objecttolerance="10"
     gridtolerance="10"
     guidetolerance="10"
     inkscape:pageopacity="0"
     inkscape:pageshadow="2"
     inkscape:window-width="1680"
     inkscape:window-height="997"
     id="namedview4"
     showgrid="false"
     inkscape:zoom="0.24656155"
     inkscape:cx="1755.1839"
     inkscape:cy="507.59745"
     inkscape:window-x="0"
     inkscape:window-y="0"
     inkscape:window-maximized="1"
     inkscape:current-layer="g2111" />
  <rect
     style="opacity:1;vector-effect:none;fill:#073a4d;fill-opacity:1;fill-rule:evenodd;stroke:none;stroke-width:10.54463959;stroke-linecap:round;stroke-linejoin:miter;stroke-miterlimit:4;stroke-dasharray:none;stroke-dashoffset:0;stroke-opacity:1;paint-order:fill markers stroke"
     id="rect1990"
     width="1922"
     height="945.87103"
     x="-2"
     y="0.45025635"
     rx="3.2127986"
     ry="1.4410683" />
  <g
     id="g2111"
     transform="matrix(1.8033207,0,0,1.7886115,-1248.098,-869.86859)">
    <path
       inkscape:connector-curvature="0"
       transform="matrix(0.88544789,0,0,0.66404872,528.17598,902.3092)"
       sodipodi:nodetypes="cccccccccccccc"
       id="path4822"
       d="m 187.94447,-515.73515 c 0,0.69879 0,1.39758 0,2.09637 119.56558,3.24911 238.91425,11.93736 357.0816,26.58047 112.8224,14.0103 224.60334,33.4306 333.98332,59.23243 89.86102,21.23211 178.13961,46.76574 263.33091,77.63295 62.7159,22.74679 123.7584,48.38931 181.9452,77.61075 25.111,12.61213 49.7639,25.85616 73.6245,39.8736 0,-3.91168 0.055,-7.59317 -0.073,-11.48644 -55.964,-31.63687 -115.3801,-59.45164 -176.7549,-84.16777 -71.5036,-28.77588 -145.6968,-53.36814 -221.39677,-74.55574 -94.80725,-26.5116 -192.00992,-47.67674 -290.3882,-64.38054 -111.76914,-18.94373 -225.09995,-32.10781 -338.98874,-40.13914 -60.65924,-4.26963 -121.48571,-7.07602 -182.36392,-8.46839 0,0.0571 0,0.1143 0,0.17145 z"
       style="fill:url(#linearGradient5879);fill-opacity:1.0;filter:url(#filter5945)" />
    <path
       inkscape:connector-curvature="0"
       sodipodi:nodetypes="cccccccccccccc"
       id="path4818"
       d="m 694.591,566.62446 c 0,0.45649 0,0.91306 0,1.36965 102.60742,1.87812 205.05652,7.14054 306.5743,16.09375 90.206,7.9676 179.6879,18.84054 267.6367,33.06325 74.4168,12.04235 147.752,26.48286 219.0982,43.78763 63.9107,15.5182 126.259,33.33521 185.7767,54.02038 31.6733,11.01483 62.5134,22.84469 92.2103,35.60896 0.1306,-2.55072 0.082,-4.92427 0.082,-7.42603 -51.5602,-21.34666 -106.334,-40.10274 -162.7803,-56.63797 -68.9617,-20.183 -140.5768,-37.17725 -213.6013,-51.6017 -88.3372,-17.4252 -178.7802,-31.08455 -270.2311,-41.57674 -109.0909,-12.49274 -219.63745,-20.47791 -330.57278,-24.43142 -31.37054,-1.11822 -62.7749,-1.90627 -94.19272,-2.38361 0,0.0379 0,0.0758 0,0.11385 z"
       style="fill:url(#linearGradient5885);fill-opacity:1.0;stroke:none;stroke-width:1.0666666" />
    <path
       inkscape:connector-curvature="0"
       transform="matrix(0.88544789,0,0,0.66404872,528.17598,902.3092)"
       id="path4820"
       d="m 187.52239,-505.98168 c -0.002,2.06742 0,4.13744 -0.0215,6.2031 -0.0241,0.43533 0.03,0.84768 0.001,1.28354 -0.24674,0.51809 0.30416,1.03458 0.97047,1.05727 5.79216,0.32221 11.57793,0.79276 17.365,1.19498 131.79587,9.62342 262.84336,26.14856 391.48024,50.62175 69.45116,13.23242 138.18805,28.80111 205.75896,47.03188 69.56054,18.7838 137.94337,40.37769 204.26104,65.34976 61.9318,23.32852 122.1186,49.60547 179.2646,79.50195 51.5956,27.01369 100.7359,57.00279 145.5829,90.60096 23.3989,17.54713 45.5913,36.08184 66.1793,55.6743 -0.2728,-1.00678 0.1214,-2.07076 -0.2493,-3.05233 -44.5529,-41.9759 -96.3296,-79.02821 -151.8134,-112.00491 -61.0675,-36.26428 -126.7194,-67.65414 -194.7624,-95.24215 -82.53998,-33.4302 -168.69167,-61.24981 -256.6609,-84.66437 -97.29905,-25.86382 -196.91065,-46.27355 -297.63731,-62.13575 -55.65577,-8.75045 -111.67226,-16.08735 -167.91689,-22.1085 96.85946,9.97898 193.08284,23.86407 287.95792,42.09443 96.32754,18.53991 191.29357,41.56731 283.58747,70.04834 74.06952,22.87043 146.43841,49.27198 215.70191,80.04088 59.666,26.51453 117.0385,56.31358 170.3296,90.15478 39.9726,25.39272 77.5882,53.11894 111.4638,83.46792 -0.2814,-0.96575 0.1359,-1.99906 -0.2593,-2.93543 -45.8833,-40.74882 -98.4433,-76.69946 -154.4386,-108.70788 -62.1973,-35.51147 -128.7118,-66.22694 -197.5434,-93.18662 -80.99452,-31.70017 -165.24067,-58.18806 -251.16922,-80.52249 -101.24767,-26.2875 -204.8977,-46.76456 -309.67219,-62.39408 -47.61182,-7.08957 -95.4694,-13.166 -143.49473,-18.27286 99.86775,10.22951 199.06515,24.60755 296.80992,43.61839 81.76297,15.92192 162.50584,35.1199 241.46594,58.13238 72.64495,21.18899 143.76628,45.62025 212.28818,74.01515 64.5051,26.75016 126.7425,57.05624 184.7482,91.78266 43.1309,25.83733 83.9051,54.17833 120.7831,85.40411 0.5432,0.58112 0.5376,0.32125 0.3924,-0.23628 -0.1262,-0.73931 0.2392,-1.58418 -0.2521,-2.25325 -51.7584,-43.49933 -110.9156,-81.36303 -173.6883,-114.72227 -65.7983,-34.92889 -135.7127,-64.96513 -207.7911,-91.18704 -82.46762,-29.96693 -167.83248,-54.90422 -254.74033,-75.79792 -85.46207,-20.52319 -172.45532,-37.08614 -260.25683,-50.22392 -48.29729,-7.21715 -96.84823,-13.39192 -145.57093,-18.57358 95.68866,9.79618 190.76221,23.4007 284.53512,41.23122 90.28196,17.19286 179.37127,38.32831 266.23923,64.14647 78.32631,23.30801 154.84354,50.42961 228.07124,82.313 48.8708,21.29503 96.2624,44.76364 141.2609,70.74911 42.2376,24.41415 82.3887,51.09653 119.1526,80.42962 1.0568,0.84035 2.1059,1.6864 3.1601,2.52872 -0.3493,-0.89612 0.1356,-1.88147 -0.3091,-2.751 -54.9082,-43.88748 -117.184,-81.86115 -183.0292,-115.19616 -64.733,-32.73669 -133.0492,-61.01619 -203.3166,-85.76741 -81.22975,-28.59623 -165.12488,-52.4529 -250.44181,-72.45249 -102.40559,-23.98449 -206.90218,-42.38271 -312.36138,-56.00743 -24.99562,-3.22819 -50.04859,-6.18363 -75.14697,-8.88075 95.95696,9.91514 191.28988,23.65668 285.30112,41.66857 90.44041,17.34842 179.6728,38.66439 266.64895,64.70418 75.43149,22.6005 149.16239,48.77713 219.85899,79.35116 58.7764,25.4494 115.4478,53.9917 168.4372,86.30457 29.097,17.76384 57.0312,36.68725 83.4049,56.88239 0.5532,0.28346 1.0556,-0.32704 0.8277,-0.71437 0.011,-0.57511 0.066,-1.27151 -0.6448,-1.62221 -3.758,-2.80903 -7.4901,-5.64989 -11.2943,-8.43779 -50.9021,-37.46823 -107.0623,-70.3829 -166.0266,-99.68138 -68.688,-34.10543 -141.253,-63.29551 -215.8412,-88.65813 -81.82574,-27.78586 -166.18849,-50.92519 -251.88235,-70.24415 -90.04885,-20.2906 -181.63797,-36.3297 -274.00529,-48.68136 -30.04214,-4.01189 -60.16922,-7.63422 -90.36351,-10.87407 97.42296,10.05783 194.20004,24.07188 289.60734,42.48289 90.9212,17.57775 180.61125,39.17 267.98943,65.56429 65.89898,19.91526 130.47398,42.60698 192.84348,68.5643 60.061,25.03625 118.0791,53.14155 172.5599,85.04894 30.3438,17.78109 59.5543,36.76504 87.1841,57.06996 -0.3607,-0.85421 0.1583,-1.80303 -0.3291,-2.6211 -58.8355,-42.91213 -124.4689,-79.865 -193.4139,-112.19025 -69.7904,-32.69137 -143.0825,-60.65113 -218.27272,-84.89136 -84.52669,-27.2278 -171.50142,-49.70629 -259.76343,-68.28082 -106.96941,-22.48346 -215.87141,-39.19723 -325.60618,-50.9235 95.63436,9.83073 190.65166,23.4649 284.36585,41.32569 94.92557,18.12584 188.5398,40.59621 279.61458,68.31615 68.9285,20.99684 136.403,45.02429 201.3643,72.71065 54.609,23.29474 107.4338,49.21137 157.3064,78.28277 25.8123,15.06171 50.805,30.97198 74.7309,47.83152 -0.3577,-0.83504 0.1678,-1.77432 -0.3356,-2.56655 -61.955,-43.33703 -130.7345,-80.43498 -202.7757,-112.75321 -67.3549,-30.17814 -137.6949,-56.17524 -209.70176,-78.81747 -86.48095,-27.1731 -175.39571,-49.48007 -265.60294,-67.77573 -100.18604,-20.29344 -201.98383,-35.61538 -304.51864,-46.56161 97.58597,10.02601 194.52801,24.01919 290.09947,42.41967 92.49771,17.84074 183.72854,39.8318 272.55021,66.80543 72.58636,22.06056 143.55296,47.46907 211.68626,76.97249 54.6978,23.71224 107.541,50.08696 157.3153,79.7085 17.5176,10.42722 34.6395,21.27382 51.2867,32.53348 -0.371,-0.81104 0.1754,-1.74165 -0.3489,-2.51201 -63.1751,-42.45694 -132.8021,-78.78781 -205.5571,-110.4112 -74.0527,-32.14833 -151.4929,-59.44011 -230.70298,-82.8589 -83.17452,-24.56894 -168.37623,-44.8482 -254.68387,-61.51679 -91.51539,-17.66752 -184.29945,-31.25186 -277.69622,-41.20562 95.40585,9.78815 190.19801,23.36678 283.69624,41.14779 90.45613,17.22323 179.71525,38.40841 266.74018,64.29747 76.77835,22.86015 151.83405,49.40612 223.74045,80.50505 57.1416,24.73583 112.2792,52.39259 163.9964,83.60516 10.4094,6.28127 20.6948,12.73614 30.8125,19.31668 -0.3686,-0.79465 0.1907,-1.70959 -0.3556,-2.45485 -60.7357,-39.32453 -126.9853,-73.24494 -196.009,-102.98116 -75.5484,-32.50906 -154.5335,-59.99762 -235.32243,-83.52214 -83.80332,-24.37557 -169.6118,-44.44411 -256.50848,-60.88488 -87.77892,-16.60506 -176.69887,-29.47407 -266.18001,-39.01613 94.85979,9.73986 189.11525,23.21438 282.09322,40.85046 97.49139,18.51992 193.6129,41.61492 287.0317,70.26201 70.4364,21.6139 139.3345,46.41501 205.5442,75.07975 60.5785,26.26315 118.9416,55.79291 173.302,89.37935 2.181,1.35102 4.3564,2.70748 6.5273,4.06827 -0.4521,-0.6487 -0.1349,-1.368 -0.2691,-2.04961 -0.2047,-0.72014 -1.2878,-0.96918 -1.8816,-1.4671 -66.5662,-41.38285 -139.1227,-76.6316 -214.5724,-107.21014 -70.9099,-28.7109 -144.5193,-53.27292 -219.62203,-74.47317 -104.62485,-29.51089 -212.19062,-52.47013 -321.08456,-70.08049 -60.17524,-9.71544 -120.7865,-17.76591 -181.66417,-24.2736 90.83049,9.34975 181.10581,22.12643 270.23349,38.69946 92.2574,17.17242 183.30813,38.43133 272.08327,64.53648 76.5865,22.54293 151.497,48.72444 223.3463,79.3817 57.3938,24.51294 112.8234,51.92748 164.9034,82.87079 2.8516,1.69215 5.687,3.40097 8.5209,5.11132 -0.4915,-0.67612 -0.051,-1.4418 -0.3092,-2.14312 -0.34,-0.61933 -1.2859,-0.85659 -1.8726,-1.31559 -68.1312,-40.88884 -142.031,-75.66995 -218.746,-105.77003 -78.1246,-30.62173 -159.2915,-56.38577 -242.0658,-78.25015 -96.8621,-25.56213 -195.98772,-45.74538 -296.2125,-61.42887 -106.03563,-16.55974 -213.33329,-28.0477 -321.09121,-34.96719 -43.49856,-2.79259 -87.07611,-4.82593 -130.6882,-6.14539 0,0.058 0,0.11603 0,0.17405 z"
       style="fill:url(#linearGradient5882);fill-opacity:1;filter:url(#filter5953)" />
    <path
       inkscape:connector-curvature="0"
       transform="matrix(0.88544789,0,0,0.62864651,528.17598,884.15485)"
       sodipodi:nodetypes="cccccccccccccc"
       style="fill:url(#linearGradient5895);fill-opacity:1.0;filter:url(#filter5961)"
       d="m 187.94447,-507.79955 c 0,0.43631 0,0.87262 0,1.30892 119.56558,2.02867 238.91425,7.4534 357.0816,16.5962 112.8224,8.74769 224.60334,20.87325 333.98332,36.98329 89.86102,13.25681 178.13961,29.19939 263.33091,48.47212 62.7159,14.20255 123.7584,30.2131 181.9452,48.45827 25.111,7.8747 41.99,13.54716 65.8506,22.29931 2.1627,-1.02498 4.8536,-3.81498 5.7502,-5.88378 -55.964,-19.75329 -113.43,-35.81144 -174.8048,-51.2436 -71.503,-17.96695 -145.6962,-33.32176 -221.39617,-46.55078 -94.80725,-16.5532 -192.00992,-29.7682 -290.3882,-40.19764 -111.76914,-11.828 -225.09995,-20.04734 -338.98874,-25.0619 -60.65924,-2.66585 -121.48571,-4.41809 -182.36392,-5.28746 0,0.0357 0,0.0714 0,0.10705 z"
       id="path5893" />
  </g>
  <rect
     style="opacity:1;vector-effect:none;fill:#073a4d;fill-opacity:1;fill-rule:evenodd;stroke:none;stroke-width:9.38730621;stroke-linecap:round;stroke-linejoin:miter;stroke-miterlimit:4;stroke-dasharray:none;stroke-dashoffset:0;stroke-opacity:1;paint-order:fill markers stroke"
     id="rect2447"
     width="1922"
     height="30"
     x="0"
     y="965"
     rx="3.0413287"
     ry="1.2064886" />
</svg>
