<?xml version="1.0" encoding="UTF-8" standalone="no"?>
<!-- Created with Inkscape (http://www.inkscape.org/) -->

<svg
   xmlns:dc="http://purl.org/dc/elements/1.1/"
   xmlns:cc="http://creativecommons.org/ns#"
   xmlns:rdf="http://www.w3.org/1999/02/22-rdf-syntax-ns#"
   xmlns:svg="http://www.w3.org/2000/svg"
   xmlns="http://www.w3.org/2000/svg"
   xmlns:sodipodi="http://sodipodi.sourceforge.net/DTD/sodipodi-0.dtd"
   xmlns:inkscape="http://www.inkscape.org/namespaces/inkscape"
   width="139.88037mm"
   height="15.183209mm"
   viewBox="0 0 139.88037 15.183209"
   version="1.1"
   id="svg6628"
   inkscape:version="0.92.4 (5da689c313, 2019-01-14)"
   sodipodi:docname="nucleotidyweblogolong.svg">
  <defs
     id="defs6622" />
  <sodipodi:namedview
     id="base"
     pagecolor="#ffffff"
     bordercolor="#666666"
     borderopacity="1.0"
     inkscape:pageopacity="0.0"
     inkscape:pageshadow="2"
     inkscape:zoom="1.7905558"
     inkscape:cx="95.373755"
     inkscape:cy="-26.173514"
     inkscape:document-units="mm"
     inkscape:current-layer="layer1"
     showgrid="false"
     fit-margin-top="0"
     fit-margin-left="0"
     fit-margin-right="0"
     fit-margin-bottom="0"
     inkscape:window-width="1680"
     inkscape:window-height="997"
     inkscape:window-x="0"
     inkscape:window-y="0"
     inkscape:window-maximized="1"
     inkscape:snap-global="false" />
  <metadata
     id="metadata6625">
    <rdf:RDF>
      <cc:Work
         rdf:about="">
        <dc:format>image/svg+xml</dc:format>
        <dc:type
           rdf:resource="http://purl.org/dc/dcmitype/StillImage" />
        <dc:title />
      </cc:Work>
    </rdf:RDF>
  </metadata>
  <g
     inkscape:label="Ebene 1"
     inkscape:groupmode="layer"
     id="layer1"
     transform="translate(-74.97982,-81.034981)">
    <g
       id="g7005"
       transform="matrix(0.92492303,0,0,0.93763176,-3.5449412,5.5319411)">
      <g
         id="g173"
         style="font-style:normal;font-variant:normal;font-weight:normal;font-stretch:normal;font-size:12px;line-height:125%;font-family:Ubahn;-inkscape-font-specification:Ubahn;letter-spacing:0px;word-spacing:0px;display:inline;fill:#bbf663;fill-opacity:1;stroke:none;stroke-width:1.31922436;stroke-linecap:butt;stroke-linejoin:miter;stroke-miterlimit:4;stroke-dasharray:none;stroke-opacity:1"
         transform="matrix(0.22740636,0,-0.02434233,0.22740636,98.728019,82.888541)"
         aria-label="nucleotidy">
        <g
           id="flowRoot163"
           style="font-style:normal;font-variant:normal;font-weight:normal;font-stretch:normal;font-size:74.66666412px;line-height:125%;font-family:'TeX Gyre Adventor';-inkscape-font-specification:'TeX Gyre Adventor';letter-spacing:0px;word-spacing:0px;fill:#bbf663;fill-opacity:1;stroke:none;stroke-width:1.31922436;stroke-linecap:butt;stroke-linejoin:miter;stroke-miterlimit:4;stroke-dasharray:none;stroke-opacity:1"
           transform="matrix(1,0,0.10704329,1,-49.414813,-100.00186)" />
        <g
           id="flowRoot171"
           style="font-style:normal;font-variant:normal;font-weight:500;font-stretch:normal;font-size:12px;line-height:125%;font-family:'Mazzard Soft M';-inkscape-font-specification:'Mazzard Soft M Medium';letter-spacing:0px;word-spacing:0px;fill:#bbf663;fill-opacity:1;stroke:none;stroke-width:1.31922436;stroke-linecap:butt;stroke-linejoin:miter;stroke-miterlimit:4;stroke-dasharray:none;stroke-opacity:1"
           transform="matrix(1,0,0.10704329,1,151.1233,-4.7235207)"
           aria-label="tidy">
          <path
             inkscape:connector-curvature="0"
             id="path7297"
             style="font-style:normal;font-variant:normal;font-weight:500;font-stretch:normal;font-size:48px;font-family:'Mazzard Soft M';-inkscape-font-specification:'Mazzard Soft M Medium';fill:#bbf663;fill-opacity:1;stroke:none;stroke-width:1.31922436;stroke-miterlimit:4;stroke-dasharray:none;stroke-opacity:1"
             d="m 34.001734,27.154782 h 2.016 v 11.136 c 0,3.744 2.976,6.624 6.912,6.624 h 2.064 c 0.72,0 1.248,-0.528 1.248,-1.248 v -1.632 c 0,-0.72 -0.528,-1.296 -1.248,-1.296 h -1.776 c -1.632,0 -2.832,-1.296 -2.832,-2.976 v -10.608 h 4.608 c 0.72,0 1.248,-0.576 1.248,-1.296 v -1.296 c 0,-0.72 -0.528,-1.248 -1.248,-1.248 h -4.608 v -2.976 c 0,-0.768 -0.624,-1.344 -1.392,-1.344 h -1.584 c -0.816,0 -1.392,0.576 -1.392,1.344 v 2.976 h -2.016 c -0.72,0 -1.248,0.528 -1.248,1.248 v 1.296 c 0,0.72 0.528,1.296 1.248,1.296 z" />
          <path
             inkscape:connector-curvature="0"
             id="path7299"
             style="font-style:normal;font-variant:normal;font-weight:500;font-stretch:normal;font-size:48px;font-family:'Mazzard Soft M';-inkscape-font-specification:'Mazzard Soft M Medium';fill:#bbf663;fill-opacity:1;stroke:none;stroke-width:1.31922436;stroke-miterlimit:4;stroke-dasharray:none;stroke-opacity:1"
             d="m 50.240734,43.570782 c 0,0.768 0.576,1.344 1.344,1.344 h 1.632 c 0.768,0 1.344,-0.576 1.344,-1.344 v -18.912 c 0,-0.768 -0.576,-1.344 -1.344,-1.344 h -1.632 c -0.768,0 -1.344,0.576 -1.344,1.344 z m -0.72,-27.216 c 0,1.632 1.248,2.88 2.88,2.88 1.632,0 2.832,-1.248 2.832,-2.88 0,-1.632 -1.2,-2.832 -2.832,-2.832 -1.632,0 -2.88,1.2 -2.88,2.832 z" />
          <path
             inkscape:connector-curvature="0"
             id="path7301"
             style="font-style:normal;font-variant:normal;font-weight:500;font-stretch:normal;font-size:48px;font-family:'Mazzard Soft M';-inkscape-font-specification:'Mazzard Soft M Medium';fill:#bbf663;fill-opacity:1;stroke:none;stroke-width:1.31922436;stroke-miterlimit:4;stroke-dasharray:none;stroke-opacity:1"
             d="m 69.304984,45.490782 c 2.928,0 5.52,-1.2 7.392,-3.216 v 1.296 c 0,0.768 0.576,1.344 1.344,1.344 h 1.632 c 0.768,0 1.344,-0.576 1.344,-1.344 v -32.112 c 0,-0.768 -0.576,-1.344 -1.344,-1.344 h -1.632 c -0.768,0 -1.344,0.576 -1.344,1.344 v 14.496 c -1.872,-2.016 -4.464,-3.216 -7.392,-3.216 -5.904,0 -10.368,4.896 -10.368,11.376 0,6.48 4.464,11.376 10.368,11.376 z m 0.72,-18.384 c 3.696,0 6.576,3.024 6.576,7.008 0,3.984 -2.88,7.008 -6.576,7.008 -3.744,0 -6.576,-3.024 -6.576,-7.008 0,-3.984 2.832,-7.008 6.576,-7.008 z" />
          <path
             inkscape:connector-curvature="0"
             id="path7303"
             style="font-style:normal;font-variant:normal;font-weight:500;font-stretch:normal;font-size:48px;font-family:'Mazzard Soft M';-inkscape-font-specification:'Mazzard Soft M Medium';fill:#bbf663;fill-opacity:1;stroke:none;stroke-width:1.31922436;stroke-miterlimit:4;stroke-dasharray:none;stroke-opacity:1"
             d="m 84.796234,24.562782 7.92,19.728 -1.248,3.168 c -1.008,2.592 -2.256,3.744 -4.656,4.032 -0.768,0.096 -1.344,0.672 -1.344,1.44 v 1.44 c 0,0.768 0.624,1.344 1.344,1.296 3.984,-0.336 6.528,-2.208 8.4,-6.72 l 9.983996,-24.384 c 0.288,-0.72 -0.096,-1.248 -0.864,-1.248 h -1.776 c -0.768,0 -1.584,0.528 -1.872,1.248 l -5.807996,14.4 -5.616,-14.4 c -0.288,-0.72 -1.056,-1.248 -1.872,-1.248 h -1.728 c -0.816,0 -1.152,0.528 -0.864,1.248 z" />
        </g>
      </g>
      <g
         aria-label="nucleotidy"
         transform="matrix(0.22740636,0,-0.02434233,0.22740636,88.379466,91.906571)"
         style="font-style:normal;font-variant:normal;font-weight:normal;font-stretch:normal;font-size:12px;line-height:125%;font-family:Ubahn;-inkscape-font-specification:Ubahn;letter-spacing:0px;word-spacing:0px;display:inline;fill:#f8f5ea;fill-opacity:1;stroke:none;stroke-width:1.16348255px;stroke-linecap:butt;stroke-linejoin:miter;stroke-opacity:1"
         id="g191">
        <g
           id="flowRoot181"
           style="font-style:normal;font-variant:normal;font-weight:normal;font-stretch:normal;font-size:74.66666412px;line-height:125%;font-family:'TeX Gyre Adventor';-inkscape-font-specification:'TeX Gyre Adventor';letter-spacing:0px;word-spacing:0px;fill:#f8f5ea;fill-opacity:1;stroke:none;stroke-width:1.16348255px;stroke-linecap:butt;stroke-linejoin:miter;stroke-opacity:1"
           transform="matrix(1,0,0.10704329,1,-49.414813,-100.00186)" />
        <g
           id="flowRoot189"
           style="font-style:normal;font-variant:normal;font-weight:normal;font-stretch:normal;font-size:12px;line-height:125%;font-family:'Mazzard Soft M';-inkscape-font-specification:'Mazzard Soft M';letter-spacing:0px;word-spacing:0px;fill:#f8f5ea;fill-opacity:1;stroke:none;stroke-width:1.16348255px;stroke-linecap:butt;stroke-linejoin:miter;stroke-opacity:1"
           transform="matrix(1,0,0.10704329,1,52.614153,-44.37951)"
           aria-label="nucleo">
          <path
             inkscape:connector-curvature="0"
             id="path7283"
             style="font-style:normal;font-variant:normal;font-weight:normal;font-stretch:normal;font-size:48px;font-family:'Mazzard Soft M';-inkscape-font-specification:'Mazzard Soft M';fill:#f8f5ea;fill-opacity:1;stroke-width:1.16348255px"
             d="m 36.401734,44.914782 h 0.96 c 0.48,0 0.864,-0.384 0.864,-0.864 v -11.664 c 0,-3.936 3.312,-6.912 7.584,-6.912 3.888,0 6.816,2.928 6.816,6.816 v 11.76 c 0,0.48 0.336,0.864 0.816,0.864 h 0.96 c 0.48,0 0.816,-0.384 0.816,-0.864 v -12.432 c 0,-4.944 -3.696,-8.688 -8.736,-8.688 -4.992,0 -7.344,2.88 -8.256,4.512 v -3.264 c 0,-0.48 -0.384,-0.864 -0.864,-0.864 h -0.96 c -0.48,0 -0.816,0.384 -0.816,0.864 v 19.872 c 0,0.48 0.336,0.864 0.816,0.864 z" />
          <path
             inkscape:connector-curvature="0"
             id="path7285"
             style="font-style:normal;font-variant:normal;font-weight:normal;font-stretch:normal;font-size:48px;font-family:'Mazzard Soft M';-inkscape-font-specification:'Mazzard Soft M';fill:#f8f5ea;fill-opacity:1;stroke-width:1.16348255px"
             d="m 61.597984,24.178782 v 12.432 c 0,4.944 3.744,8.688 8.784,8.688 4.992,0 7.344,-2.88 8.256,-4.512 v 3.264 c 0,0.48 0.384,0.864 0.864,0.864 h 0.96 c 0.48,0 0.816,-0.384 0.816,-0.864 v -19.872 c 0,-0.48 -0.336,-0.864 -0.816,-0.864 h -0.96 c -0.48,0 -0.864,0.384 -0.864,0.864 v 11.664 c 0,3.936 -3.312,6.912 -7.632,6.912 -3.84,0 -6.768,-2.928 -6.768,-6.816 v -11.76 c 0,-0.48 -0.336,-0.864 -0.816,-0.864 h -0.96 c -0.48,0 -0.864,0.384 -0.864,0.864 z" />
          <path
             inkscape:connector-curvature="0"
             id="path7287"
             style="font-style:normal;font-variant:normal;font-weight:normal;font-stretch:normal;font-size:48px;font-family:'Mazzard Soft M';-inkscape-font-specification:'Mazzard Soft M';fill:#f8f5ea;fill-opacity:1;stroke-width:1.16348255px"
             d="m 107.18973,29.362782 c 0.48,-0.096 0.672,-0.576 0.432,-0.96 -1.872,-3.36 -5.424,-5.472 -9.695996,-5.472 -6.336,0 -11.136,4.8 -11.136,11.184 0,6.384 4.8,11.184 11.136,11.184 4.271996,0 7.823996,-2.112 9.695996,-5.424 0.24,-0.432 0.048,-0.864 -0.432,-1.008 l -1.008,-0.384 c -0.096,0 -0.144,-0.048 -0.24,-0.048 -0.336,0 -0.72,0.192 -1.008,0.528 -1.44,2.256 -3.984,3.696 -7.007996,3.696 -4.8,0 -8.4,-3.696 -8.4,-8.544 0,-4.896 3.6,-8.544 8.4,-8.544 3.023996,0 5.567996,1.44 7.007996,3.648 0.432,0.528 0.672,0.528 1.248,0.528 z" />
          <path
             inkscape:connector-curvature="0"
             id="path7289"
             style="font-style:normal;font-variant:normal;font-weight:normal;font-stretch:normal;font-size:48px;font-family:'Mazzard Soft M';-inkscape-font-specification:'Mazzard Soft M';fill:#f8f5ea;fill-opacity:1;stroke-width:1.16348255px"
             d="m 113.21073,44.050782 c 0,0.48 0.336,0.864 0.816,0.864 h 0.96 c 0.48,0 0.864,-0.384 0.864,-0.864 v -33.072 c 0,-0.48 -0.384,-0.864 -0.864,-0.864 h -0.96 c -0.48,0 -0.816,0.384 -0.816,0.864 z" />
          <path
             inkscape:connector-curvature="0"
             id="path7291"
             style="font-style:normal;font-variant:normal;font-weight:normal;font-stretch:normal;font-size:48px;font-family:'Mazzard Soft M';-inkscape-font-specification:'Mazzard Soft M';fill:#f8f5ea;fill-opacity:1;stroke-width:1.16348255px"
             d="m 142.40973,34.930782 c 0.48,0 0.912,-0.384 0.912,-0.864 0,-6.24 -4.704,-11.136 -11.04,-11.136 -6.24,0 -10.992,4.8 -10.992,11.184 0,6.384 4.848,11.184 11.376,11.184 3.888,0 7.2,-1.728 9.168,-4.512 0.288,-0.384 0.144,-0.864 -0.336,-1.008 l -1.104,-0.336 c -0.096,-0.048 -0.192,-0.048 -0.288,-0.048 -0.24,0 -0.528,0.096 -0.768,0.336 -1.488,1.92 -3.888,3.072 -6.672,3.072 -4.752,0 -8.352,-3.36 -8.688,-7.872 z m -1.824,-2.208 h -16.56 c 0.576,-4.224 3.984,-7.296 8.208,-7.296 4.368,0 7.776,3.072 8.352,7.296 z" />
          <path
             inkscape:connector-curvature="0"
             id="path7293"
             style="font-style:normal;font-variant:normal;font-weight:normal;font-stretch:normal;font-size:48px;font-family:'Mazzard Soft M';-inkscape-font-specification:'Mazzard Soft M';fill:#f8f5ea;fill-opacity:1;stroke-width:1.16348255px"
             d="m 147.21048,34.114782 c 0,6.384 4.848,11.184 11.232,11.184 6.336,0 11.184,-4.8 11.184,-11.184 0,-6.384 -4.848,-11.184 -11.184,-11.184 -6.384,0 -11.232,4.8 -11.232,11.184 z m 2.784,0 c 0,-4.848 3.6,-8.544 8.4,-8.544 4.848,0 8.448,3.696 8.448,8.544 0,4.848 -3.6,8.544 -8.448,8.544 -4.8,0 -8.4,-3.696 -8.4,-8.544 z" />
        </g>
      </g>
    </g>
  </g>
</svg>
